<svg width="53" height="64" viewBox="0 0 53 64" fill="none" xmlns="http://www.w3.org/2000/svg">
<g clip-path="url(#clip0_65_346)">
<path d="M48.79 62.5601H9.86998V58.6201H5.11C3.95809 58.4787 2.8893 57.9471 2.0815 57.1138C1.27369 56.2806 0.775581 55.1958 0.669999 54.0401C0.299999 50.3001 0.669999 39.24 0.669999 38.77V38.64L0.739975 38.5301C1.58886 37.1266 2.6364 35.8534 3.84999 34.7501C2.73614 33.9251 1.89919 32.7813 1.45 31.4701L1.26997 31.0401L1.68999 30.83C3.08957 30.0067 4.30747 28.9079 5.26997 27.6001C6.87997 25.5101 6.87 24.8201 6.86 23.1601V22.6501C6.86 22.0501 6.71998 21 6.55998 19.77C6.16998 16.69 5.67998 12.8701 6.55998 11.1601C6.84001 10.5871 7.08057 9.99575 7.27998 9.39004C7.74854 7.55929 8.8962 5.97546 10.49 4.96005C11.19 4.49005 11.84 4.04005 12.49 3.62005C13.7633 2.614 15.1658 1.78326 16.66 1.15005C19.45 0.220051 22.86 0.310052 24.76 1.37005C25.01 1.51005 25.37 1.67005 25.76 1.87005C28.3 3.02005 33.03 5.17006 34.36 10.3201C35.0481 13.4528 35.3835 16.6527 35.36 19.86C35.2944 21.5407 35.4558 23.2225 35.84 24.86C36.5575 26.5965 37.4206 28.2691 38.42 29.86L38.52 30.0101V30.1901C38.52 30.3701 38.25 31.8001 35.35 32.6901C37.586 33.6416 39.3547 35.439 40.27 37.6901H48.12L51.72 46.5701H48.85L48.79 62.5601ZM10.87 61.5601H47.79V45.5601H50.17L47.44 38.7201H39.44L39.34 38.3501C38.34 34.5301 33.53 33.0801 33.48 33.0601L31.48 32.4701L33.55 32.0901C36.47 31.5601 37.22 30.57 37.4 30.21C36.4155 28.6345 35.5658 26.9786 34.86 25.2601C34.4136 23.5035 34.2282 21.6907 34.31 19.8801C34.3272 16.7457 33.9918 13.6194 33.31 10.5601C32.1 5.87005 27.66 3.85005 25.31 2.77005C24.85 2.56005 24.47 2.39005 24.21 2.24005C21.8809 1.27953 19.2766 1.22603 16.91 2.09005C15.5065 2.69502 14.1885 3.48175 12.99 4.43005C12.38 4.85005 11.73 5.31006 10.99 5.78006C9.58369 6.68302 8.57508 8.08866 8.17 9.71005C7.96474 10.3411 7.72093 10.9589 7.43999 11.5601C6.71999 12.9901 7.22999 16.9601 7.56999 19.5601C7.72038 20.5544 7.82049 21.5556 7.86998 22.5601V23.0601C7.86998 24.8001 7.86999 25.7501 6.06999 28.1201C5.10389 29.413 3.91535 30.5237 2.55998 31.4001C3.67998 33.84 4.97998 34.0701 4.98998 34.0701L6.67 34.33L5.12999 35.0301C3.90999 35.5701 2.28 37.8701 1.67 38.8501C1.67 40.1401 1.32 50.3901 1.67 53.8501C1.73713 54.7738 2.12273 55.6456 2.76103 56.3168C3.39933 56.9879 4.25077 57.4167 5.17 57.5301H10.87V61.5601Z" fill="#1D1D1B" stroke="#1D1D1B" stroke-miterlimit="10"/>
<path d="M16.75 7.56006C17.9237 8.58547 19.281 9.37944 20.75 9.90005C22.2265 10.4145 23.7885 10.6386 25.35 10.5601" fill="#1D1D1B"/>
<path d="M14.31 10.0601C15.37 9.43006 16.23 12.9401 19.94 14.2801C24.24 15.8401 26.94 12.3901 29.23 14.0901C31.52 15.7901 30.94 21.2801 29.05 24.7001C28.64 25.4301 26.54 29.2401 22.29 30.0501C20.8483 30.3024 19.3671 30.2064 17.97 29.7701C13.63 28.3901 12.7 25.5701 12.34 24.7001C10.63 20.6001 10.69 17.3701 11.12 16.0701C11.35 15.3601 12.04 13.6101 12.62 12.3101C13.055 11.4718 13.6261 10.7115 14.31 10.0601Z" stroke="#1D1D1B" stroke-width="2" stroke-miterlimit="10"/>
<path d="M16.85 18.4H15.81V19.44H16.85V18.4Z" fill="#1D1D1B" stroke="#1D1D1B" stroke-miterlimit="10"/>
<path d="M25.94 18.4H24.9V19.44H25.94V18.4Z" fill="#1D1D1B" stroke="#1D1D1B" stroke-miterlimit="10"/>
<path d="M20.83 25.76C20.3688 25.757 19.9179 25.6228 19.5301 25.3732C19.1423 25.1235 18.8336 24.7686 18.64 24.35L19.55 23.93C19.6682 24.1938 19.8652 24.4146 20.1139 24.562C20.3627 24.7095 20.6509 24.7762 20.9391 24.7532C21.2273 24.7302 21.5014 24.6185 21.7235 24.4335C21.9457 24.2485 22.1052 23.9993 22.18 23.72L23.18 23.99C23.0406 24.4852 22.7477 24.9234 22.3433 25.2415C21.939 25.5596 21.4441 25.7411 20.93 25.76H20.83Z" fill="#1D1D1B"/>
<path d="M20.78 35.4501C19.6865 35.4308 18.6137 35.148 17.6528 34.6258C16.6918 34.1035 15.871 33.3572 15.26 32.4501C12.76 32.6101 6.92002 34.87 6.86002 34.89L6.48999 33.9601C6.75999 33.8501 13.03 31.4401 15.49 31.4401H15.78L15.93 31.6901C16.4762 32.5789 17.2524 33.3036 18.1765 33.7877C19.1006 34.2718 20.1383 34.4972 21.18 34.4401C24.6 34.1901 25.31 31.9 25.34 31.8L25.44 31.4401H25.82C27.7527 31.4487 29.6806 31.6328 31.58 31.9901L31.32 32.9901C29.619 32.663 27.8921 32.4889 26.16 32.4701C25.78 33.3001 24.57 35.2301 21.25 35.4701L20.78 35.4501Z" fill="#1D1D1B"/>
<path d="M17.07 58.6301H9.88V57.6301H17.26C18.4604 57.7698 19.6704 57.4638 20.66 56.7701C21.0184 56.4473 21.2958 56.0446 21.4695 55.5946C21.6433 55.1446 21.7085 54.66 21.66 54.1801C21.7063 53.6397 21.6305 53.0959 21.4384 52.5888C21.2463 52.0816 20.9427 51.6241 20.55 51.2501C19.6018 50.6233 18.4483 50.3869 17.33 50.5901H0.799988V49.5901H17.27C17.9538 49.4653 18.6557 49.4789 19.3341 49.63C20.0126 49.7812 20.6538 50.0668 21.22 50.4701C21.7336 50.9322 22.1342 51.5062 22.3908 52.1477C22.6474 52.7893 22.7532 53.4812 22.7 54.1701C22.7487 54.8067 22.6443 55.4457 22.3955 56.0338C22.1468 56.6218 21.7608 57.1417 21.27 57.5501C20.0419 58.3957 18.5537 58.7785 17.07 58.6301Z" fill="#1D1D1B" stroke="#1D1D1B" stroke-miterlimit="10"/>
<path d="M10.72 46.17H9.59V50.04H10.72V46.17Z" fill="#1D1D1B"/>
<path d="M29.66 46.95H14.67L17.75 37.85H39.35V38.85H18.47L16.06 45.95H29.09L32.85 39.58L36.15 45.88H47.81V46.88H35.54L32.79 41.64L29.66 46.95Z" fill="#1D1D1B" stroke="#1D1D1B" stroke-miterlimit="10"/>
<path d="M33.39 41.38H32.26V61.72H33.39V41.38Z" fill="#1D1D1B" stroke="#1D1D1B" stroke-miterlimit="10"/>
<path d="M17.69 46.73H16.63V49.62H17.69V46.73Z" fill="#1D1D1B"/>
<path d="M17.69 58.7H16.63V61.59H17.69V58.7Z" fill="#1D1D1B"/>
<path d="M42 50H40V58H42V50Z" fill="#FFCA56"/>
<path d="M45 53H37V55H45V53Z" fill="#FFCA56"/>
</g>
<defs>
<clipPath id="clip0_65_346">
<rect width="52.39" height="63.05" fill="white"/>
</clipPath>
</defs>
</svg>
