<svg width="57" height="58" viewBox="0 0 57 58" fill="none" xmlns="http://www.w3.org/2000/svg">
<g clip-path="url(#clip0_28_787)">
<path d="M28.5238 49.9794C26.2517 49.9794 23.9769 50.0433 21.7076 49.9461C20.8262 49.9072 19.9588 49.5044 19.0886 49.2516C18.9161 49.1849 18.7554 49.0911 18.6129 48.9738C14.3095 45.918 9.57788 44.5513 4.24751 44.9207C1.0353 45.143 0 43.9346 0 40.776C0 38.5203 0 36.2618 0 34.0061C0 32.3227 0.895393 31.1754 2.49031 30.8115C4.87149 30.2698 7.24707 29.7142 9.64783 29.2725C13.2797 28.555 17.0503 29.2672 20.1631 31.2587C20.8458 31.6498 21.492 32.1007 22.0938 32.606C24.9702 35.2118 28.5098 35.9146 32.2145 36.1674C32.5889 36.1462 32.9645 36.1686 33.3337 36.2341C35.9835 37.0674 37.8862 35.9702 39.6126 34.0673C40.704 32.8779 41.9101 31.7977 43.2138 30.842C44.4198 29.9531 45.8188 29.9586 47.1311 30.7781C48.4434 31.5976 49.1681 32.8144 48.9667 34.3756C48.858 35.0486 48.5883 35.6859 48.1804 36.2341C45.3357 40.101 42.4676 43.9457 39.5763 47.7681C38.499 49.196 37.1223 50.0683 35.2029 49.9905C32.9784 49.9155 30.7511 49.9794 28.5238 49.9794ZM2.96878 42.0344C3.95091 42.0344 4.86589 42.0567 5.76688 42.0344C10.3893 41.89 14.6732 42.9234 18.5038 45.5791C19.0268 45.9603 19.5897 46.2844 20.1827 46.5458C20.8458 46.8236 21.5621 47.1236 22.2617 47.132C26.4812 47.1848 30.7035 47.132 34.923 47.1709C36.0199 47.1709 36.7418 46.7209 37.363 45.8791C40.0212 42.2817 42.7101 38.7037 45.3767 35.1145C45.7657 34.5895 46.5323 33.9784 45.6565 33.4061C45.332 33.195 44.4282 33.4894 44.0308 33.8283C42.352 35.2701 40.7347 36.798 39.1454 38.3453C38.8612 38.6732 38.7035 39.0906 38.7005 39.5232C38.7005 42.3011 37.4077 43.6901 34.6404 43.8651C32.8804 43.9707 31.098 43.9012 29.366 44.1735C24.7324 44.9041 20.6667 43.8957 17.1831 40.7038C16.7158 40.276 16.0639 40.0371 15.5434 39.6732C14.8663 39.2093 14.5109 38.5953 14.9446 37.7869C15.3783 36.9785 16.1338 36.8063 16.9565 37.173C17.4561 37.4099 17.9344 37.6887 18.3863 38.0064C19.5055 38.7509 20.6248 39.487 21.7048 40.2815C22.894 41.1764 24.3815 41.5885 25.8656 41.4344C28.7756 41.1983 31.6968 41.0983 34.6097 40.8621C35.0294 40.8288 35.4155 40.3454 35.8184 40.0704C35.4043 39.7926 35.0182 39.3231 34.5705 39.2537C33.2945 39.0565 31.9906 39.0287 30.6979 38.9176C27.2283 38.6398 23.9433 37.8425 21.1844 35.5396C20.3536 34.8757 19.4817 34.2643 18.5738 33.7089C15.6749 31.856 12.5243 31.5587 9.23652 32.3366C7.17712 32.8255 5.13451 33.3867 2.95199 33.9478L2.96878 42.0344Z" fill="#0F1B4C"/>
<path d="M30.0564 4.82974C31.0876 3.90596 32.093 2.85771 33.2474 2.0003C37.0514 -0.831907 41.8408 -0.630005 45.4958 2.4373C47.2626 3.92342 48.4464 5.951 48.8485 8.17991C49.2506 10.4088 48.8466 12.7035 47.7043 14.6789C45.5044 18.551 42.428 21.729 39.005 24.5861C36.5329 26.6494 33.8804 28.5108 31.3081 30.4607C30.6264 30.9779 29.9046 31.2462 29.1054 30.6958C22.7463 26.3092 16.6335 21.6737 12.5745 15.0329C10.5264 11.6807 10.4491 8.22342 12.5029 4.87123C14.5567 1.51904 17.7048 -0.107264 21.7523 0.0337933C24.4277 0.127832 26.4615 1.54117 28.3176 3.24769C28.902 3.78426 29.4892 4.30423 30.0564 4.82974ZM30.2225 27.988C33.445 25.2665 36.8108 22.7053 39.8099 19.8095C41.8322 17.8734 43.5509 15.5556 45.0748 13.2074C46.9367 10.3393 46.0229 6.49754 43.3303 4.4287C40.4658 2.23263 37.3149 2.3239 34.4505 4.77996C33.4221 5.65396 32.5513 6.69668 31.586 7.64812C30.4173 8.80424 29.6353 8.79595 28.4666 7.64812C27.4067 6.59987 26.4128 5.48525 25.2842 4.51444C23.9751 3.38875 22.4426 2.70836 20.6065 2.92409C15.1296 3.56576 12.3511 8.97849 15.164 13.603C18.7933 19.5965 24.3589 23.7259 30.2225 27.988Z" fill="#FFCA56"/>
</g>
<defs>
<clipPath id="clip0_28_787">
<rect width="57" height="58" fill="white"/>
</clipPath>
</defs>
</svg>
