<svg width="36" height="27" viewBox="0 0 36 27" fill="none" xmlns="http://www.w3.org/2000/svg">
<rect x="0.5" y="25.5407" width="24.1797" height="34.1438" rx="12.0898" transform="rotate(-90 0.5 25.5407)" stroke="#E4E8E9"/>
<mask id="path-2-inside-1_1584_1761" fill="white">
<path d="M10.7033 12.9311L23.159 12.9259L18.3114 8.0783C18.2568 8.02376 18.2262 7.9498 18.2262 7.87267C18.2262 7.79555 18.2568 7.72158 18.3114 7.66705C18.3659 7.61251 18.4399 7.58187 18.517 7.58187C18.5941 7.58187 18.6681 7.61251 18.7226 7.66705L24.0689 13.0133C24.1234 13.0678 24.1541 13.1418 24.1541 13.2189C24.1541 13.296 24.1234 13.37 24.0689 13.4246L18.7226 18.7708C18.6681 18.8253 18.5941 18.856 18.517 18.856C18.4399 18.856 18.3659 18.8253 18.3114 18.7708C18.2568 18.7163 18.2262 18.6423 18.2262 18.5652C18.2262 18.4881 18.2568 18.4141 18.3114 18.3596L23.159 13.5119L10.7033 13.5068C10.662 13.5127 10.62 13.5097 10.58 13.4979C10.54 13.4861 10.5031 13.4659 10.4716 13.4386C10.4401 13.4113 10.4149 13.3776 10.3976 13.3397C10.3803 13.3018 10.3713 13.2606 10.3713 13.2189C10.3713 13.1773 10.3803 13.1361 10.3976 13.0982C10.4149 13.0603 10.4401 13.0265 10.4716 12.9992C10.5031 12.9719 10.54 12.9517 10.58 12.94C10.62 12.9282 10.662 12.9252 10.7033 12.9311Z"/>
</mask>
<path d="M10.7033 12.9311L23.159 12.9259L18.3114 8.0783C18.2568 8.02376 18.2262 7.9498 18.2262 7.87267C18.2262 7.79555 18.2568 7.72158 18.3114 7.66705C18.3659 7.61251 18.4399 7.58187 18.517 7.58187C18.5941 7.58187 18.6681 7.61251 18.7226 7.66705L24.0689 13.0133C24.1234 13.0678 24.1541 13.1418 24.1541 13.2189C24.1541 13.296 24.1234 13.37 24.0689 13.4246L18.7226 18.7708C18.6681 18.8253 18.5941 18.856 18.517 18.856C18.4399 18.856 18.3659 18.8253 18.3114 18.7708C18.2568 18.7163 18.2262 18.6423 18.2262 18.5652C18.2262 18.4881 18.2568 18.4141 18.3114 18.3596L23.159 13.5119L10.7033 13.5068C10.662 13.5127 10.62 13.5097 10.58 13.4979C10.54 13.4861 10.5031 13.4659 10.4716 13.4386C10.4401 13.4113 10.4149 13.3776 10.3976 13.3397C10.3803 13.3018 10.3713 13.2606 10.3713 13.2189C10.3713 13.1773 10.3803 13.1361 10.3976 13.0982C10.4149 13.0603 10.4401 13.0265 10.4716 12.9992C10.5031 12.9719 10.54 12.9517 10.58 12.94C10.62 12.9282 10.662 12.9252 10.7033 12.9311Z" fill="white"/>
<path d="M10.7033 12.9311L10.5618 13.921L10.6324 13.9311L10.7037 13.9311L10.7033 12.9311ZM23.159 12.9259L23.1594 13.9259L25.5722 13.9249L23.8661 12.2188L23.159 12.9259ZM23.159 13.5119L23.8661 14.219L25.5722 12.5129L23.1594 12.5119L23.159 13.5119ZM10.7033 13.5068L10.7037 12.5068L10.6324 12.5068L10.5618 12.5169L10.7033 13.5068ZM10.7037 13.9311L23.1594 13.9259L23.1586 11.9259L10.7028 11.9311L10.7037 13.9311ZM23.8661 12.2188L19.0185 7.37119L17.6043 8.7854L22.4519 13.633L23.8661 12.2188ZM19.0185 7.37119C19.1515 7.50419 19.2262 7.68458 19.2262 7.87267L17.2262 7.87267C17.2262 8.21501 17.3622 8.54333 17.6043 8.7854L19.0185 7.37119ZM19.2262 7.87267C19.2262 8.06077 19.1515 8.24115 19.0185 8.37415L17.6043 6.95994C17.3622 7.20201 17.2262 7.53033 17.2262 7.87267L19.2262 7.87267ZM19.0185 8.37415C18.8855 8.50715 18.7051 8.58187 18.517 8.58187L18.517 6.58187C18.1747 6.58187 17.8463 6.71787 17.6043 6.95994L19.0185 8.37415ZM18.517 8.58187C18.3289 8.58187 18.1485 8.50715 18.0155 8.37415L19.4297 6.95994C19.1877 6.71787 18.8594 6.58187 18.517 6.58187L18.517 8.58187ZM18.0155 8.37415L23.3618 13.7204L24.776 12.3062L19.4297 6.95994L18.0155 8.37415ZM23.3618 13.7204C23.2288 13.5874 23.1541 13.407 23.1541 13.2189L25.1541 13.2189C25.1541 12.8766 25.0181 12.5483 24.776 12.3062L23.3618 13.7204ZM23.1541 13.2189C23.1541 13.0308 23.2288 12.8504 23.3618 12.7174L24.776 14.1317C25.0181 13.8896 25.1541 13.5613 25.1541 13.2189L23.1541 13.2189ZM23.3618 12.7174L18.0155 18.0637L19.4297 19.4779L24.776 14.1317L23.3618 12.7174ZM18.0155 18.0637C18.1485 17.9307 18.3289 17.856 18.517 17.856L18.517 19.856C18.8593 19.856 19.1877 19.72 19.4297 19.4779L18.0155 18.0637ZM18.517 17.856C18.7051 17.856 18.8855 17.9307 19.0185 18.0637L17.6043 19.4779C17.8463 19.72 18.1747 19.856 18.517 19.856L18.517 17.856ZM19.0185 18.0637C19.1515 18.1967 19.2262 18.3771 19.2262 18.5652L17.2262 18.5652C17.2262 18.9075 17.3622 19.2358 17.6043 19.4779L19.0185 18.0637ZM19.2262 18.5652C19.2262 18.7533 19.1515 18.9337 19.0185 19.0667L17.6043 17.6524C17.3622 17.8945 17.2262 18.2228 17.2262 18.5652L19.2262 18.5652ZM19.0185 19.0667L23.8661 14.219L22.4519 12.8048L17.6043 17.6524L19.0185 19.0667ZM23.1594 12.5119L10.7037 12.5068L10.7028 14.5068L23.1586 14.5119L23.1594 12.5119ZM10.5618 12.5169C10.6624 12.5025 10.7649 12.5099 10.8624 12.5386L10.2976 14.4572C10.475 14.5094 10.6616 14.5229 10.8447 14.4968L10.5618 12.5169ZM10.8624 12.5386C10.9599 12.5673 11.05 12.6166 11.1268 12.6832L9.8164 14.1941C9.95611 14.3152 10.1202 14.405 10.2976 14.4572L10.8624 12.5386ZM11.1268 12.6832C11.2036 12.7497 11.2651 12.832 11.3073 12.9245L9.48786 13.7549C9.56464 13.9231 9.67669 14.0729 9.8164 14.1941L11.1268 12.6832ZM11.3073 12.9245C11.3495 13.0169 11.3713 13.1173 11.3713 13.2189L9.37133 13.2189C9.37133 13.4039 9.41107 13.5866 9.48786 13.7549L11.3073 12.9245ZM11.3713 13.2189C11.3713 13.3205 11.3495 13.421 11.3073 13.5134L9.48786 12.683C9.41107 12.8512 9.37133 13.034 9.37133 13.2189L11.3713 13.2189ZM11.3073 13.5134C11.2651 13.6058 11.2036 13.6881 11.1268 13.7547L9.8164 12.2438C9.67668 12.365 9.56464 12.5147 9.48786 12.683L11.3073 13.5134ZM11.1268 13.7547C11.05 13.8213 10.9599 13.8706 10.8624 13.8993L10.2976 11.9807C10.1202 12.0329 9.95611 12.1226 9.8164 12.2438L11.1268 13.7547ZM10.8624 13.8993C10.7649 13.928 10.6624 13.9354 10.5618 13.921L10.8447 11.9411C10.6616 11.9149 10.475 11.9284 10.2976 11.9807L10.8624 13.8993Z" fill="#E4E8E9" mask="url(#path-2-inside-1_1584_1761)"/>
</svg>
