<svg width="63" height="61" viewBox="0 0 63 61" fill="none" xmlns="http://www.w3.org/2000/svg">
<g clip-path="url(#clip0_26_569)">
<path d="M33.2285 52.9373C32.8979 51.2813 33.5225 49.9382 34.5486 48.7172C37.2908 45.4471 40.0079 42.1541 42.777 38.9069C45.3096 35.9345 48.6725 34.5513 52.4888 34.1144C53.3612 34.0133 54.1318 33.9789 54.7428 33.0536C55.1137 32.4927 56.1283 32.1493 56.8893 32.0806C58.4746 31.9356 60.0849 32.0291 61.6837 32.0406C62.7021 32.0406 62.9923 32.3325 62.9942 33.3532C63.0019 38.278 63.0019 43.2028 62.9942 48.1276C62.9942 49.1617 62.731 49.4212 61.6895 49.4326C60.2482 49.446 58.807 49.3925 57.3697 49.4498C55.9323 49.507 54.8101 49.0205 54.0261 47.4904C53.4496 47.9521 52.8385 48.2936 52.4273 48.7973C50.2085 51.5077 48.0191 54.2423 45.8592 57.0011C43.7935 59.6549 41.0552 60.9332 37.7366 60.9675C33.9606 61.0076 30.1827 60.9923 26.3991 60.9675C23.9951 60.9675 22.2599 59.281 22.2522 57.0144C22.2445 54.7479 23.9817 53.0823 26.3914 53.0537C28.5666 53.027 30.7419 53.0366 32.9249 53.0251C33.0289 53.0068 33.1307 52.9773 33.2285 52.9373ZM53.7897 35.9574C50.0618 36.2016 46.82 37.2547 44.3834 40.0574C42.0621 42.7284 39.7735 45.4248 37.5175 48.1467C36.7258 49.1006 35.9206 50.0717 35.3442 51.1516C34.637 52.4756 35.446 53.8913 36.8814 53.9065C37.4714 53.9065 38.1939 53.565 38.6378 53.1434C40.4095 51.4893 42.0967 49.7436 43.8127 48.036C44.2835 47.5686 44.8119 47.416 45.3231 47.9349C45.8342 48.4539 45.6575 48.9594 45.1828 49.4288C43.4111 51.1764 41.6663 52.9488 39.8772 54.6773C38.4533 56.0548 36.7066 56.2379 34.9425 55.2935C34.6729 55.1343 34.3696 55.0396 34.0567 55.0169C31.5278 54.994 28.9984 54.9908 26.4682 55.0074C25.0751 55.0169 24.1892 55.8392 24.195 57.0488C24.195 58.1935 25.0866 59.0253 26.4298 59.033C30.1757 59.0495 33.9215 59.0495 37.6674 59.033C40.5075 59.0177 42.7635 57.8882 44.4891 55.5988C46.2704 53.2331 48.1959 50.9742 50.0233 48.6427C51.0514 47.334 52.041 46.008 53.7878 45.6894L53.7897 35.9574ZM61.0918 33.9064C59.6103 33.9064 58.1806 33.8874 56.7509 33.916C56.1533 33.9274 55.8247 34.2976 55.8247 34.9043C55.8247 38.8077 55.8016 42.7112 55.8651 46.6147C55.8651 46.9619 56.4223 47.5686 56.7567 47.5972C58.1767 47.7079 59.6103 47.6449 61.0918 47.6449V33.9064Z" fill="#0F1B4C"/>
<path d="M9.0431 13.5687C9.70413 12.9639 10.3459 12.5041 10.8283 11.9146C13.0227 9.22258 15.1769 6.49816 17.3348 3.77564C19.3103 1.28016 21.9563 0.0896566 25.0866 0.0419602C28.9606 -0.0286307 32.8365 0.00380529 36.7104 0.0324232C39.0356 0.0515018 40.7458 1.78002 40.7458 4.00458C40.7458 6.22915 39.0164 7.90806 36.6682 7.93477C34.4007 7.96148 32.1332 7.93477 29.7619 7.93477C30.177 9.94566 29.2411 11.3899 28.0824 12.7598C25.4056 15.9249 22.7692 19.1206 20.0597 22.2571C17.5481 25.1685 14.2065 26.4677 10.4516 26.8855C9.59075 26.9809 8.89705 27.1145 8.28214 27.9196C7.8517 28.4824 6.89281 28.8468 6.13377 28.9155C4.51578 29.0643 2.86704 28.9498 1.23944 28.9689C0.392006 28.9785 -0.00769043 28.5778 -0.00769043 27.7613C-0.00769043 22.7703 -0.00769043 17.7787 -0.00769043 12.7865C-0.00769043 11.968 0.330513 11.5483 1.19332 11.5578C2.8901 11.5769 4.5888 11.5578 6.28558 11.5731C7.51349 11.5845 8.29751 12.2885 9.0431 13.5687ZM9.15647 25.0521C12.9055 24.8174 16.178 23.7681 18.63 20.9426C21.2626 17.9091 23.8337 14.8241 26.401 11.7371C26.9423 11.1126 27.3949 10.4174 27.7461 9.67093C28.1631 8.73226 27.8499 7.90616 27.0928 7.40439C26.2972 6.87591 25.3941 6.93887 24.6197 7.59518C24.4486 7.73827 24.293 7.90044 24.1335 8.05688C22.5251 9.65185 20.909 11.2392 19.3141 12.8475C18.801 13.3645 18.2649 13.6603 17.673 13.065C17.1158 12.506 17.4002 11.9852 17.8902 11.5044C19.6408 9.7873 21.3683 8.03398 23.1266 6.31882C24.4717 5.01193 26.2415 4.77917 27.9037 5.62054C28.2073 5.77317 28.5474 5.95442 28.8645 5.95823C31.5221 5.98685 34.1816 6.02501 36.8373 5.93724C37.4577 5.86914 38.0257 5.55975 38.4168 5.0768C39.4314 3.72222 38.4457 2.02423 36.6317 1.99179C32.7884 1.946 28.9452 1.946 25.102 1.99179C22.3733 2.02423 20.2115 3.17848 18.5416 5.36107C16.449 8.09313 14.266 10.7546 12.1004 13.4313C11.7449 13.8701 11.3317 14.4387 10.8513 14.576C9.08729 15.0664 9.01235 16.2931 9.13149 17.7583C9.22565 18.9279 9.15071 20.1107 9.15071 21.286L9.15647 25.0521ZM1.91968 13.3474V27.0992C3.40701 27.0992 4.83861 27.1278 6.26829 27.0878C6.98313 27.0668 7.19258 26.5746 7.18874 25.903C7.17721 22.1254 7.18105 18.3479 7.20027 14.5703C7.20027 13.7766 6.81595 13.3703 6.05691 13.355C4.71755 13.3283 3.37627 13.3474 1.91968 13.3474Z" fill="#0F1B4C"/>
<path d="M31.5125 24.0485C34.3334 21.6809 37.2293 22.3315 38.88 23.5868C41.3377 25.4642 41.7816 28.7018 39.9157 31.5121C37.9499 34.4731 35.152 36.5298 32.1505 38.327C31.9578 38.4244 31.7456 38.4777 31.5294 38.483C31.3133 38.4883 31.0987 38.4454 30.9014 38.3575C27.7404 36.4496 24.7523 34.3224 22.8422 31.0618C21.3049 28.4462 21.7469 25.6092 23.8472 23.812C25.9475 22.0148 28.8222 22.03 31.2281 23.873C31.3011 23.9226 31.3838 23.9665 31.5125 24.0485ZM23.7434 28.469C23.9817 28.9899 24.2296 30.0812 24.8791 30.8233C26.2127 32.3496 27.6366 33.8511 29.2527 35.0588C32.0602 37.1574 30.9821 37.0163 33.7762 35.0779C35.644 33.7863 37.3369 32.2676 38.5245 30.2853C39.1548 29.2303 39.4468 28.1161 39.0779 26.9122C38.2305 24.1535 34.8042 23.377 32.75 25.4661C31.7143 26.5192 31.303 26.5192 30.2385 25.4661C30.1285 25.3511 30.0117 25.2428 29.8887 25.1417C28.6724 24.1878 27.333 23.9837 25.9321 24.6285C24.5313 25.2734 23.8203 26.4181 23.7434 28.469Z" fill="#FFCA56"/>
<path d="M52.8251 30.457C52.83 30.6629 52.793 30.8677 52.7161 31.059C52.6393 31.2503 52.5242 31.4242 52.3779 31.5702C52.2316 31.7162 52.057 31.8312 51.8647 31.9085C51.6724 31.9857 51.4664 32.0235 51.259 32.0196C50.8554 31.9918 50.4783 31.81 50.2067 31.5123C49.9351 31.2146 49.7901 30.8241 49.802 30.4226C49.8139 30.0211 49.9819 29.6397 50.2706 29.3585C50.5594 29.0772 50.9467 28.9177 51.3512 28.9136C51.5504 28.9178 51.7468 28.9611 51.9289 29.0412C52.1111 29.1212 52.2755 29.2363 52.4126 29.3799C52.5497 29.5234 52.6567 29.6926 52.7275 29.8774C52.7983 30.0623 52.8315 30.2593 52.8251 30.457Z" fill="#0F1B4C"/>
<path d="M27.6424 49.467C27.6253 49.8685 27.4495 50.2472 27.1531 50.5208C26.8567 50.7944 26.4635 50.9409 26.059 50.9285C25.8587 50.9245 25.6612 50.8811 25.478 50.8006C25.2949 50.7201 25.1297 50.6041 24.9921 50.4596C24.8546 50.315 24.7474 50.1447 24.6769 49.9586C24.6063 49.7724 24.5738 49.5742 24.5812 49.3755C24.5967 48.9748 24.7686 48.5958 25.0606 48.3188C25.3525 48.0417 25.7416 47.8884 26.1454 47.8912C26.5472 47.9232 26.9227 48.1021 27.1992 48.3932C27.4758 48.6843 27.6337 49.067 27.6424 49.467Z" fill="#0F1B4C"/>
<path d="M34.7715 10.9645C34.7705 11.1634 34.7288 11.3601 34.6489 11.5426C34.5689 11.725 34.4524 11.8894 34.3064 12.0257C34.1605 12.1621 33.9881 12.2675 33.7998 12.3357C33.6116 12.4038 33.4113 12.4332 33.2112 12.4221C33.0111 12.4212 32.8132 12.3804 32.6292 12.3021C32.4453 12.2239 32.279 12.1098 32.1403 11.9665C32.0016 11.8233 31.8933 11.6539 31.8217 11.4683C31.7502 11.2827 31.7169 11.0848 31.7239 10.8862C31.7546 10.062 32.506 9.34659 33.2919 9.39047C33.6963 9.41024 34.077 9.58567 34.3532 9.87953C34.6295 10.1734 34.7795 10.5626 34.7715 10.9645Z" fill="#0F1B4C"/>
<path d="M12.0581 35.656C11.8583 35.6633 11.659 35.6301 11.4725 35.5585C11.286 35.4869 11.1161 35.3783 10.9732 35.2395C10.8303 35.1006 10.7174 34.9344 10.6412 34.7508C10.5651 34.5672 10.5274 34.3702 10.5304 34.1717C10.5214 33.9733 10.5526 33.7751 10.6223 33.589C10.692 33.4029 10.7986 33.2326 10.936 33.0882C11.0733 32.9438 11.2385 32.8284 11.4217 32.7487C11.6049 32.669 11.8024 32.6267 12.0023 32.6244C12.4061 32.6359 12.791 32.7966 13.0817 33.075C13.3724 33.3534 13.5481 33.7295 13.5742 34.1297C13.5743 34.5309 13.4152 34.916 13.1315 35.2016C12.8477 35.4872 12.4621 35.6505 12.0581 35.656Z" fill="#0F1B4C"/>
<path d="M41.8239 12.8437C41.8094 13.2456 41.6432 13.6273 41.3585 13.9132C41.0737 14.1991 40.6911 14.3683 40.2866 14.3872C40.0864 14.391 39.8875 14.3552 39.7014 14.2819C39.5152 14.2085 39.3457 14.0992 39.2026 13.9601C39.0595 13.8211 38.9458 13.6551 38.8679 13.472C38.7901 13.2888 38.7498 13.0921 38.7493 12.8933C38.7395 12.6945 38.771 12.4959 38.8416 12.3096C38.9123 12.1233 39.0206 11.9534 39.16 11.8104C39.2994 11.6673 39.4669 11.5542 39.652 11.4779C39.8372 11.4017 40.0362 11.3639 40.2366 11.367C40.4385 11.3604 40.6398 11.3934 40.8288 11.464C41.0179 11.5347 41.1911 11.6416 41.3385 11.7788C41.4859 11.9159 41.6046 12.0806 41.6879 12.2633C41.7712 12.446 41.8174 12.6433 41.8239 12.8437Z" fill="#0F1B4C"/>
<path d="M19.5754 47.7041C19.3757 47.7069 19.1774 47.67 18.9922 47.5957C18.807 47.5213 18.6387 47.4109 18.4971 47.271C18.3555 47.1311 18.2435 46.9646 18.1676 46.7811C18.0918 46.5976 18.0536 46.4009 18.0555 46.2026C18.0933 45.8243 18.272 45.4737 18.5565 45.2193C18.8411 44.9649 19.211 44.8251 19.5939 44.8273C19.9768 44.8294 20.3451 44.9734 20.6267 45.2309C20.9083 45.4885 21.083 45.8411 21.1166 46.2198C21.1148 46.4181 21.0735 46.6141 20.9948 46.7964C20.9162 46.9787 20.8019 47.1437 20.6585 47.2817C20.5151 47.4198 20.3456 47.5283 20.1596 47.6008C19.9737 47.6733 19.7751 47.7084 19.5754 47.7041Z" fill="#0F1B4C"/>
<path d="M47.6252 17.1707C47.6208 17.5709 47.4601 17.9537 47.1769 18.2385C46.8936 18.5233 46.5101 18.6877 46.1071 18.697C45.9069 18.7034 45.7074 18.6697 45.5207 18.5978C45.3339 18.5259 45.1636 18.4173 45.0201 18.2785C44.8766 18.1398 44.7627 17.9737 44.6854 17.7902C44.608 17.6068 44.5687 17.4097 44.5698 17.2108C44.5694 16.8088 44.7248 16.422 45.0039 16.1307C45.2829 15.8394 45.6643 15.666 46.0687 15.6464C46.472 15.6645 46.8543 15.8304 47.1417 16.1119C47.4292 16.3934 47.6014 16.7706 47.6252 17.1707Z" fill="#0F1B4C"/>
<path d="M49.9426 24.8175C49.742 24.8205 49.5428 24.7839 49.3565 24.7098C49.1703 24.6358 49.0007 24.5257 48.8577 24.386C48.7146 24.2463 48.601 24.0797 48.5233 23.8961C48.4457 23.7124 48.4056 23.5152 48.4054 23.316C48.3865 23.1044 48.4123 22.8912 48.4811 22.69C48.55 22.4889 48.6604 22.3042 48.8052 22.1479C48.9501 21.9915 49.1262 21.8669 49.3224 21.782C49.5185 21.6972 49.7304 21.6539 49.9444 21.6549C50.1583 21.656 50.3697 21.7014 50.565 21.7882C50.7603 21.8751 50.9352 22.0014 51.0784 22.1592C51.2217 22.317 51.3302 22.5027 51.397 22.7046C51.4639 22.9064 51.4875 23.1198 51.4665 23.3312C51.4681 23.5291 51.4296 23.7253 51.3532 23.9081C51.2769 24.0909 51.1643 24.2566 51.0221 24.3953C50.8799 24.5339 50.711 24.6428 50.5256 24.7153C50.3401 24.7879 50.1419 24.8226 49.9426 24.8175Z" fill="#0F1B4C"/>
<path d="M16.1761 40.8377C16.1876 41.7286 15.5881 42.3506 14.7099 42.3639C14.5102 42.3739 14.3106 42.3441 14.1228 42.2761C13.9349 42.2082 13.7627 42.1035 13.6164 41.9683C13.47 41.8331 13.3524 41.6702 13.2706 41.4891C13.1887 41.308 13.1443 41.1124 13.14 40.914C13.1414 40.5137 13.2971 40.1292 13.5751 39.8393C13.8531 39.5494 14.2324 39.3762 14.635 39.3553C14.835 39.3489 15.0344 39.3825 15.2211 39.4541C15.4078 39.5257 15.5782 39.6339 15.7219 39.7722C15.8657 39.9105 15.98 40.0761 16.058 40.2591C16.1361 40.4422 16.1762 40.6389 16.1761 40.8377Z" fill="#0F1B4C"/>
<path d="M53.7878 35.9574V45.6875C52.0411 46.0061 51.0514 47.332 50.0234 48.6408C48.1959 50.978 46.2705 53.2369 44.4834 55.6083C42.7539 57.8978 40.5018 59.0234 37.6617 59.0425C33.9171 59.0628 30.1712 59.0628 26.4241 59.0425C25.0789 59.0425 24.1931 58.2068 24.1892 57.0583C24.1892 55.8487 25.0693 55.0264 26.4625 55.0169C28.9913 54.9978 31.5208 55.001 34.0509 55.0264C34.3639 55.0491 34.6672 55.1438 34.9368 55.3031C36.7008 56.257 38.4476 56.0662 39.8715 54.6868C41.6605 52.9583 43.4053 51.1859 45.1771 49.4383C45.6517 48.969 45.8266 48.4634 45.3174 47.9445C44.8081 47.4255 44.2778 47.5782 43.807 48.0456C42.089 49.7531 40.4038 51.4988 38.6321 53.1529C38.1882 53.5669 37.4656 53.9161 36.8757 53.9161C35.4383 53.9008 34.6294 52.4852 35.3384 51.1611C35.9149 50.0813 36.7201 49.1064 37.5118 48.1562C39.7729 45.4395 42.0615 42.743 44.3777 40.0669C46.8181 37.2547 50.056 36.2016 53.7878 35.9574Z" fill="white"/>
<path d="M61.0823 33.9065V47.6431C59.6007 47.6431 58.1672 47.706 56.7471 47.5954C56.4127 47.5706 55.8612 46.9601 55.8555 46.6128C55.7921 42.7094 55.8132 38.8059 55.8151 34.9024C55.8151 34.29 56.1437 33.9256 56.7413 33.9141C58.171 33.8874 59.6007 33.9065 61.0823 33.9065Z" fill="white"/>
<path d="M9.1565 25.0521V21.2669C9.1565 20.0917 9.23144 18.9088 9.13728 17.7393C9.01814 16.274 9.09308 15.0473 10.8571 14.557C11.3452 14.4234 11.7507 13.8549 12.1062 13.4122C14.2718 10.7412 16.4548 8.07024 18.5474 5.342C20.2173 3.15941 22.3791 2.00515 25.1078 1.97272C28.951 1.9282 32.7942 1.9282 36.6375 1.97272C38.4515 1.99561 39.4372 3.70315 38.4226 5.05773C38.0315 5.54068 37.4635 5.85006 36.8431 5.91817C34.1874 6.00593 31.5279 5.96778 28.8703 5.93916C28.5455 5.93916 28.2054 5.74838 27.9095 5.60147C26.2473 4.7601 24.4737 4.99286 23.1324 6.29974C21.3741 8.01682 19.6466 9.76251 17.896 11.4853C17.406 11.9661 17.1273 12.4869 17.6788 13.0459C18.2707 13.6412 18.8068 13.3455 19.3199 12.8284C20.9148 11.2201 22.5309 9.63278 24.1393 8.03781C24.2988 7.88136 24.4544 7.71919 24.6255 7.5761C25.3941 6.92934 26.303 6.86638 27.0986 7.38531C27.8557 7.88708 28.1689 8.72082 27.7519 9.65185C27.4007 10.3984 26.9481 11.0936 26.4068 11.7181C23.8395 14.805 21.2684 17.89 18.6358 20.9235C16.1781 23.7681 12.9056 24.8174 9.1565 25.0521Z" fill="white"/>
<path d="M1.91968 13.3473C3.37626 13.3473 4.71754 13.3283 6.0569 13.3473C6.82555 13.3626 7.20987 13.769 7.20026 14.5627C7.18233 18.3402 7.17848 22.1178 7.18873 25.8953C7.18873 26.5669 6.98312 27.0591 6.26828 27.0801C4.8386 27.1202 3.407 27.0916 1.91968 27.0916V13.3473Z" fill="white"/>
<path d="M23.7434 28.4691C23.8203 26.4143 24.5313 25.2715 25.9321 24.6286C27.333 23.9856 28.6723 24.1955 29.8887 25.1418C30.0117 25.2429 30.1285 25.3512 30.2385 25.4661C31.303 26.5193 31.7143 26.5193 32.75 25.4661C34.8042 23.377 38.2304 24.1535 39.0779 26.9123C39.4468 28.1161 39.1547 29.2303 38.5244 30.2854C37.3369 32.2677 35.642 33.7863 33.7761 35.0779C30.9783 37.0163 32.0601 37.1613 29.2527 35.0589C27.6366 33.8512 26.2127 32.3459 24.8791 30.8234C24.2296 30.0812 23.9817 28.99 23.7434 28.4691Z" fill="white"/>
</g>
<defs>
<clipPath id="clip0_26_569">
<rect width="63" height="61" fill="white"/>
</clipPath>
</defs>
</svg>
