<?xml version="1.0" encoding="utf-8"?>
<!-- Generator: Adobe Illustrator 27.3.1, SVG Export Plug-In . SVG Version: 6.00 Build 0)  -->
<svg version="1.1" id="Capa_1" xmlns="http://www.w3.org/2000/svg" xmlns:xlink="http://www.w3.org/1999/xlink" x="0px" y="0px"
	 viewBox="0 0 36 27" style="enable-background:new 0 0 36 27;" xml:space="preserve">
<style type="text/css">
	.st0{fill:none;stroke:#023B59;}
	.st1{fill:#FFFFFF;stroke:#023B59;stroke-miterlimit:10;}
	.st2{fill:#FFFFFF;filter:url(#Adobe_OpacityMaskFilter);}
	
		.st3{mask:url(#path-2-inside-1_1584_1761_00000036955370622809731920000004326973377155188398_);fill:#023B59;stroke:#023B59;stroke-miterlimit:10;}
</style>
<path class="st0" d="M0.5,13.5L0.5,13.5c0-6.7,5.4-12.1,12.1-12.1h10c6.7,0,12.1,5.4,12.1,12.1v0c0,6.7-5.4,12.1-12.1,12.1h-10
	C5.9,25.5,0.5,20.1,0.5,13.5z"/>
<path class="st1" d="M10.7,12.9l12.5,0l-4.8-4.8c-0.1-0.1-0.1-0.1-0.1-0.2c0-0.1,0-0.2,0.1-0.2c0.1-0.1,0.1-0.1,0.2-0.1
	s0.2,0,0.2,0.1l5.3,5.3c0.1,0.1,0.1,0.1,0.1,0.2s0,0.2-0.1,0.2l-5.3,5.3c-0.1,0.1-0.1,0.1-0.2,0.1s-0.2,0-0.2-0.1
	c-0.1-0.1-0.1-0.1-0.1-0.2c0-0.1,0-0.2,0.1-0.2l4.8-4.8l-12.5,0c0,0-0.1,0-0.1,0s-0.1,0-0.1-0.1c0,0-0.1-0.1-0.1-0.1
	c0,0,0-0.1,0-0.1c0,0,0-0.1,0-0.1c0,0,0-0.1,0.1-0.1c0,0,0.1,0,0.1-0.1C10.6,12.9,10.7,12.9,10.7,12.9z"/>
<defs>
	<filter id="Adobe_OpacityMaskFilter" filterUnits="userSpaceOnUse" x="8.8" y="6.1" width="18" height="14.3">
		<feColorMatrix  type="matrix" values="1 0 0 0 0  0 1 0 0 0  0 0 1 0 0  0 0 0 1 0"/>
	</filter>
</defs>
<mask maskUnits="userSpaceOnUse" x="8.8" y="6.1" width="18" height="14.3" id="path-2-inside-1_1584_1761_00000036955370622809731920000004326973377155188398_">
	<path class="st2" d="M10.7,12.9l12.5,0l-4.8-4.8c-0.1-0.1-0.1-0.1-0.1-0.2c0-0.1,0-0.2,0.1-0.2c0.1-0.1,0.1-0.1,0.2-0.1
		s0.2,0,0.2,0.1l5.3,5.3c0.1,0.1,0.1,0.1,0.1,0.2s0,0.2-0.1,0.2l-5.3,5.3c-0.1,0.1-0.1,0.1-0.2,0.1s-0.2,0-0.2-0.1
		c-0.1-0.1-0.1-0.1-0.1-0.2c0-0.1,0-0.2,0.1-0.2l4.8-4.8l-12.5,0c0,0-0.1,0-0.1,0s-0.1,0-0.1-0.1c0,0-0.1-0.1-0.1-0.1
		c0,0,0-0.1,0-0.1c0,0,0-0.1,0-0.1c0,0,0-0.1,0.1-0.1c0,0,0.1,0,0.1-0.1C10.6,12.9,10.7,12.9,10.7,12.9z"/>
</mask>
<path class="st3" d="M10.7,12.9l-0.1,1l0.1,0h0.1L10.7,12.9z M23.2,12.9l0,1l2.4,0l-1.7-1.7L23.2,12.9z M23.2,13.5l0.7,0.7l1.7-1.7
	l-2.4,0L23.2,13.5z M10.7,13.5l0-1h-0.1l-0.1,0L10.7,13.5z M10.7,13.9l12.5,0l0-2l-12.5,0L10.7,13.9z M23.9,12.2L19,7.4l-1.4,1.4
	l4.8,4.8L23.9,12.2z M19,7.4c0.1,0.1,0.2,0.3,0.2,0.5h-2c0,0.3,0.1,0.7,0.4,0.9L19,7.4z M19.2,7.9c0,0.2-0.1,0.4-0.2,0.5L17.6,7
	c-0.2,0.2-0.4,0.6-0.4,0.9H19.2z M19,8.4c-0.1,0.1-0.3,0.2-0.5,0.2v-2c-0.3,0-0.7,0.1-0.9,0.4L19,8.4z M18.5,8.6
	c-0.2,0-0.4-0.1-0.5-0.2L19.4,7c-0.2-0.2-0.6-0.4-0.9-0.4V8.6z M18,8.4l5.3,5.3l1.4-1.4L19.4,7L18,8.4z M23.4,13.7
	c-0.1-0.1-0.2-0.3-0.2-0.5h2c0-0.3-0.1-0.7-0.4-0.9L23.4,13.7z M23.2,13.2c0-0.2,0.1-0.4,0.2-0.5l1.4,1.4c0.2-0.2,0.4-0.6,0.4-0.9
	H23.2z M23.4,12.7L18,18.1l1.4,1.4l5.3-5.3L23.4,12.7z M18,18.1c0.1-0.1,0.3-0.2,0.5-0.2v2c0.3,0,0.7-0.1,0.9-0.4L18,18.1z
	 M18.5,17.9c0.2,0,0.4,0.1,0.5,0.2l-1.4,1.4c0.2,0.2,0.6,0.4,0.9,0.4V17.9z M19,18.1c0.1,0.1,0.2,0.3,0.2,0.5h-2
	c0,0.3,0.1,0.7,0.4,0.9L19,18.1z M19.2,18.6c0,0.2-0.1,0.4-0.2,0.5l-1.4-1.4c-0.2,0.2-0.4,0.6-0.4,0.9H19.2z M19,19.1l4.8-4.8
	l-1.4-1.4l-4.8,4.8L19,19.1z M23.2,12.5l-12.5,0l0,2l12.5,0L23.2,12.5z M10.6,12.5c0.1,0,0.2,0,0.3,0l-0.6,1.9
	c0.2,0.1,0.4,0.1,0.5,0L10.6,12.5z M10.9,12.5c0.1,0,0.2,0.1,0.3,0.1l-1.3,1.5c0.1,0.1,0.3,0.2,0.5,0.3L10.9,12.5z M11.1,12.7
	c0.1,0.1,0.1,0.1,0.2,0.2l-1.8,0.8c0.1,0.2,0.2,0.3,0.3,0.4L11.1,12.7z M11.3,12.9c0,0.1,0.1,0.2,0.1,0.3h-2c0,0.2,0,0.4,0.1,0.5
	L11.3,12.9z M11.4,13.2c0,0.1,0,0.2-0.1,0.3l-1.8-0.8c-0.1,0.2-0.1,0.4-0.1,0.5H11.4z M11.3,13.5c0,0.1-0.1,0.2-0.2,0.2l-1.3-1.5
	c-0.1,0.1-0.3,0.3-0.3,0.4L11.3,13.5z M11.1,13.8c-0.1,0.1-0.2,0.1-0.3,0.1L10.3,12c-0.2,0.1-0.3,0.1-0.5,0.3L11.1,13.8z M10.9,13.9
	c-0.1,0-0.2,0-0.3,0l0.3-2c-0.2,0-0.4,0-0.5,0L10.9,13.9z"/>
</svg>
