<?xml version="1.0" encoding="utf-8"?>
<!-- Generator: Adobe Illustrator 25.4.1, SVG Export Plug-In . SVG Version: 6.00 Build 0)  -->
<svg version="1.1" id="Capa_1" xmlns="http://www.w3.org/2000/svg" xmlns:xlink="http://www.w3.org/1999/xlink" x="0px" y="0px"
	 viewBox="0 0 260 92" style="enable-background:new 0 0 260 92;" xml:space="preserve">
<style type="text/css">
	.st0{fill:#303A89;}
	.st1{fill:#367EBD;}
</style>
<g>
	<g>
		<path class="st0" d="M44,66.1V51.9H32.3V46h18.9v22.8c-2.8,2-5.9,3.5-9.2,4.5c-3.5,1-7.1,1.5-10.7,1.5c-8.3,0-14.8-2.4-19.4-7.3
			s-7-11.6-7-20.2c0-8.7,2.3-15.4,7-20.3c4.7-4.9,11.2-7.3,19.4-7.3c3.3,0,6.7,0.4,9.9,1.3c3,0.8,6,2.1,8.6,3.8v7.6
			c-2.5-2.2-5.4-3.9-8.5-5.1c-3-1.1-6.2-1.7-9.4-1.7c-6.5,0-11.4,1.8-14.6,5.5c-3.3,3.6-4.9,9-4.9,16.2c0,7.2,1.6,12.5,4.9,16.2
			c3.2,3.6,8.1,5.4,14.6,5.4c2.3,0,4.6-0.2,6.8-0.7C40.5,67.8,42.4,67.1,44,66.1z"/>
		<path class="st0" d="M86.9,51.5v3.2h-30c0.3,4.5,1.7,7.9,4.1,10.3c2.4,2.4,5.8,3.5,10.1,3.5c2.5,0,4.9-0.3,7.3-0.9
			c2.4-0.6,4.8-1.6,7-2.8V71c-2.3,1-4.7,1.8-7.2,2.3c-2.5,0.5-5,0.8-7.5,0.8c-6.3,0-11.4-1.8-15.1-5.5c-3.7-3.7-5.6-8.7-5.6-15
			c0-6.5,1.8-11.7,5.3-15.5c3.5-3.8,8.3-5.7,14.2-5.7c5.4,0,9.6,1.7,12.7,5.2C85.3,40.9,86.9,45.6,86.9,51.5z M80.3,49.6
			c0.1-3.1-1-6.2-3-8.6c-1-1.1-2.2-1.9-3.5-2.4c-1.3-0.6-2.8-0.8-4.2-0.7c-3.2-0.2-6.4,1-8.8,3.1c-2.3,2.3-3.7,5.4-3.8,8.7
			L80.3,49.6z"/>
		<path class="st1" d="M85.6,20h14.8c10.3,0,17.8,2.1,22.6,6.4c4.8,4.3,7.2,11,7.2,20.1c0,9.2-2.4,15.9-7.3,20.2S110.6,73,100.4,73
			H85.6V20z M92.8,25.9v41.3h8.7c7.3,0,12.6-1.7,16.1-5c3.4-3.3,5.1-8.6,5.1-15.8c0-7.1-1.7-12.3-5.1-15.6c-3.4-3.3-8.8-5-16.1-5
			L92.8,25.9z"/>
		<path class="st1" d="M133.3,43.6c0.7-0.2,1.5-0.2,2.2-0.1c0.6,0.1,1.2,0.4,1.6,0.8c0.4,0.5,0.6,1.1,0.6,1.7c0,1-0.1,2-0.4,3
			c-0.2,0.8-0.4,1.8-0.7,3c-0.3,1.2-0.6,2.4-0.9,3.6c-0.3,1.3-0.6,2.6-1,3.9c-0.3,1.3-0.6,2.6-0.8,3.8l-0.4,2.2
			c-0.2,1.2-0.2,2.4,0,3.6c0.2,0.8,0.7,0.9,1.7,0.2c0.6-0.5,1.2-1.1,1.6-1.8c0.5-0.8,1-1.6,1.4-2.4c0.4-0.9,0.8-1.8,1-2.7
			c0.2-0.8,0.4-1.6,0.6-2.4c0-0.6,0.4-0.9,1-0.8c0.1,0,0.2,0,0.4,0.1c0.1,0.1,0.2,0.1,0.3,0.2c0.1,0.1,0.1,0.2,0.2,0.3
			c0,0.1,0,0.2,0,0.4c-0.1,0.9-0.3,1.9-0.6,2.7c-0.3,1-0.7,1.9-1.1,2.9c-0.4,0.9-0.9,1.8-1.5,2.6c-0.5,0.8-1.1,1.5-1.8,2.1
			c-1.1,0.9-2.4,1.5-3.8,1.7c-2.5,0.3-4.2-0.1-5.2-1.3c-1-1.5-1.5-3.2-1.3-5c0.1-0.7,0.1-1.3,0.2-2c0.1-0.7,0.2-1.4,0.4-2.1
			c0.3-1.6,0.7-3.2,1.2-4.9c0.5-1.6,0.8-3.1,1.1-4.4c0.2-1.1-8,34.9,0.3-3.2c-0.1-0.8-0.5-1.3-1.1-1.4c-1,0-2,0.3-2.8,0.8
			c0-0.8,0.4-1.6,0.9-2.2c0.5-0.6,1.1-1.1,1.8-1.5c0.8-0.4,1.6-0.7,2.5-0.9C131.5,43.9,132.4,43.8,133.3,43.6z M138.6,32.5
			c0,0.6-0.1,1.2-0.2,1.8c-0.2,0.7-0.4,1.3-0.8,1.9c-0.3,0.6-0.8,1.1-1.3,1.4c-0.5,0.4-1.1,0.6-1.7,0.6c-0.5,0-1,0-1.4-0.2
			c-0.4-0.2-0.9-0.4-1.2-0.8c-0.7-0.7-1.1-1.6-1.1-2.6c-0.1-0.6,0-1.3,0.1-1.9c0.2-0.6,0.4-1.2,0.8-1.8c0.4-0.5,0.8-1,1.3-1.4
			c0.5-0.4,1.1-0.7,1.7-0.8c0.5-0.1,1-0.1,1.5,0.1c0.5,0.2,0.9,0.5,1.2,0.9C138.1,30.5,138.5,31.5,138.6,32.5L138.6,32.5z"/>
		<path class="st1" d="M157.8,64.5v-7.3V64.5z M157.8,54.5V19.3H174c5.9,0,10.4,1.3,13.5,4c3.1,2.7,4.6,6.6,4.6,11.8
			c0,5.2-1.5,9.2-4.6,11.9c-3,2.7-7.5,4-13.5,4h-9v21.3h-7.2v-7.9V54.5z M157.8,57.2v-2.7V57.2z M165,25.2v20h9
			c2.8,0.2,5.6-0.8,7.8-2.6c1.8-2.1,2.7-4.7,2.7-7.4s-1-5.3-2.7-7.4c-2.2-1.8-4.9-2.8-7.8-2.6H165z"/>
		<path class="st0" d="M221.4,48.4v24h-6.5V48.6c0-3.8-0.7-6.6-2.2-8.5c-0.8-1-1.8-1.7-3-2.2c-1.2-0.5-2.4-0.7-3.6-0.6
			c-1.6-0.1-3.1,0.2-4.6,0.8c-1.4,0.6-2.7,1.5-3.8,2.6c-2.2,2.6-3.3,5.9-3.1,9.2v22.6H188V17.1h6.6v21.7c1.4-2.2,3.3-4.1,5.5-5.4
			c2.2-1.2,4.7-1.8,7.3-1.8c4.6,0,8,1.4,10.4,4.2C220.2,38.7,221.4,42.9,221.4,48.4z"/>
		<path class="st0" d="M256.7,50.9V54h-30.1c0.3,4.5,1.7,7.9,4.1,10.3c2.4,2.4,5.8,3.5,10.1,3.5c2.5,0,4.9-0.3,7.3-0.9
			c2.4-0.6,4.8-1.6,7-2.8v6.2c-2.3,1-4.7,1.8-7.2,2.3c-2.5,0.5-5,0.8-7.5,0.8c-6.4,0-11.4-1.8-15.1-5.5c-3.7-3.7-5.6-8.7-5.6-15
			c0-6.5,1.8-11.7,5.3-15.5c3.5-3.8,8.3-5.7,14.2-5.7c5.4,0,9.6,1.7,12.7,5.2C255.1,40.2,256.7,44.9,256.7,50.9z M250.1,48.9
			c0.1-3.1-1-6.2-3-8.6c-1-1.1-2.2-1.9-3.5-2.4s-2.8-0.8-4.2-0.7c-3.2-0.2-6.4,1-8.8,3.1c-2.3,2.3-3.7,5.4-3.8,8.7L250.1,48.9z"/>
		<path class="st0" d="M56.1,20.8c-0.2-0.6-0.3-1.2-0.3-1.8c0-0.5,0.2-0.9,0.5-1.3c0.4-0.4,0.8-0.6,1.4-0.7c0.8-0.1,1.6-0.1,2.4,0.1
			l2.4,0.3l3,0.4l3.3,0.4c1.1,0.1,2.2,0.2,3.2,0.3l1.8,0.1c1,0.1,2,0,3-0.3c0.7-0.2,0.7-0.7,0-1.4c-0.5-0.5-1-0.9-1.6-1.2
			c-0.7-0.4-1.4-0.7-2.1-0.9c-0.7-0.3-1.5-0.5-2.3-0.6c-0.7-0.1-1.4-0.2-2-0.2c-0.5,0-0.7-0.2-0.7-0.8c0-0.5,0.3-0.7,0.8-0.7
			c0.8,0,1.5,0.1,2.3,0.2c0.8,0.2,1.6,0.4,2.4,0.6c0.8,0.3,1.6,0.6,2.3,1c0.7,0.3,1.3,0.7,1.9,1.2c0.8,0.8,1.4,1.8,1.7,3
			c0.5,2,0.3,3.5-0.6,4.4c-1.1,1-2.5,1.5-4,1.5h-1.7c-0.6,0-1.2,0-1.8-0.1c-1.3-0.1-2.7-0.3-4-0.5c-1.4-0.2-2.6-0.4-3.6-0.4
			c-0.9-0.1-1.8-0.1-2.7,0.1c-0.7,0.2-1,0.5-1,1c0.1,0.8,0.4,1.6,0.9,2.2c-0.7,0-1.4-0.1-1.9-0.5c-0.5-0.4-1-0.9-1.4-1.4
			c-0.4-0.6-0.7-1.3-1-2C56.4,22.2,56.2,21.5,56.1,20.8z"/>
		<path class="st1" d="M139.8,72.4h7.3V25.3h11v-5.9h-33v5.9h14.1L139.8,72.4z"/>
	</g>
</g>
</svg>
