<?xml version="1.0" encoding="utf-8"?>
<!-- Generator: Adobe Illustrator 26.3.1, SVG Export Plug-In . SVG Version: 6.00 Build 0)  -->
<svg version="1.1" id="Ebene_1" xmlns="http://www.w3.org/2000/svg" xmlns:xlink="http://www.w3.org/1999/xlink" x="0px" y="0px"
	 viewBox="0 0 431.64 276.85" style="enable-background:new 0 0 431.64 276.85;" xml:space="preserve">
<g>
	<g>
		<polygon points="249.53,120.71 174.69,38.35 174.69,84.6 182.54,84.6 182.54,59.34 257.38,142.11 257.38,96.17 249.53,96.17 		"/>
		<path d="M174.86,118.19c0,0.01,0,0.02,0,0.03c0,0.01,0,0.02,0,0.03c0,4.27,1.06,8.24,3.17,11.9c2.11,3.66,4.99,6.57,8.64,8.73
			c3.64,2.16,7.66,3.23,12.05,3.23c4.27,0,8.23-1.06,11.9-3.17c3.66-2.12,6.57-4.99,8.73-8.64c2.15-3.64,3.23-7.66,3.23-12.05
			c0-0.01,0-0.02,0-0.03h-7.85c0,0.01,0,0.02,0,0.03c0,2.94-0.72,5.63-2.17,8.06c-1.45,2.44-3.39,4.37-5.83,5.8
			c-2.44,1.43-5.1,2.15-8,2.15c-2.94,0-5.63-0.73-8.06-2.17c-2.44-1.45-4.37-3.39-5.8-5.83c-1.43-2.44-2.15-5.1-2.15-8
			c0-0.01,0-0.02,0-0.03c0-0.01,0-0.02,0-0.03h0v-6.06h15.11v-7.97h-15.11v-7.99h-7.85V118.19z"/>
		<path d="M257.52,62.26c0-0.01,0-0.02,0-0.03c0-0.01,0-0.02,0-0.03c0-4.27-1.06-8.24-3.17-11.9c-2.11-3.66-4.99-6.57-8.64-8.73
			c-3.64-2.16-7.66-3.23-12.05-3.23c-4.27,0-8.23,1.06-11.9,3.17c-3.66,2.12-6.57,4.99-8.73,8.64c-2.15,3.64-3.23,7.66-3.23,12.05
			c0,0.01,0,0.02,0,0.03h7.85c0-0.01,0-0.02,0-0.03c0-2.94,0.72-5.63,2.17-8.06c1.45-2.44,3.39-4.37,5.83-5.8
			c2.44-1.43,5.1-2.15,8-2.15c2.94,0,5.63,0.73,8.06,2.17c2.44,1.45,4.37,3.39,5.8,5.83c1.43,2.44,2.15,5.1,2.15,8
			c0,0.01,0,0.02,0,0.03c0,0.01,0,0.02,0,0.03h0v6.06h-15.11v7.97h15.11v8.31h7.85V62.26z"/>
	</g>
	<g>
		<g>
			<path d="M133.96,234.98c-0.08,0-0.15-0.03-0.21-0.09c-0.06-0.06-0.08-0.14-0.08-0.23c0-0.08,0.02-0.17,0.05-0.27
				c0.03-0.1,0.08-0.19,0.16-0.27s0.16-0.15,0.27-0.21c0.11-0.06,0.24-0.08,0.4-0.08c0.2,0,0.42,0.02,0.66,0.07
				c0.24,0.05,0.49,0.1,0.74,0.17c0.25,0.06,0.49,0.13,0.73,0.2c0.24,0.07,0.45,0.12,0.64,0.16c0.14,0.03,0.29,0.05,0.45,0.06
				c0.15,0,0.3-0.01,0.43-0.06c0.14-0.04,0.26-0.11,0.36-0.21s0.19-0.23,0.24-0.4c0.03-0.09,0.05-0.17,0.06-0.25s0.03-0.14,0.06-0.2
				s0.06-0.09,0.1-0.12c0.04-0.03,0.1-0.03,0.18-0.02l0.73,0.15c0.11,0.01,0.18,0.04,0.21,0.09c0.03,0.05,0.04,0.13,0.04,0.25
				c0,0.29-0.07,0.57-0.21,0.83c-0.14,0.26-0.32,0.49-0.55,0.68c-0.22,0.19-0.48,0.35-0.76,0.46s-0.57,0.17-0.86,0.17
				c-0.24,0-0.47-0.03-0.68-0.08s-0.43-0.11-0.64-0.16c-0.05,0.51-0.18,0.95-0.39,1.32s-0.47,0.67-0.79,0.9
				c-0.32,0.23-0.68,0.4-1.08,0.51s-0.82,0.16-1.26,0.16c-0.48,0-0.94-0.08-1.37-0.24c-0.43-0.16-0.81-0.38-1.13-0.67
				s-0.58-0.63-0.77-1.03c-0.19-0.4-0.28-0.84-0.28-1.31c0-0.68,0.14-1.25,0.42-1.69c0.28-0.45,0.67-0.81,1.16-1.09
				c-0.27-0.22-0.48-0.5-0.64-0.83s-0.23-0.7-0.23-1.1c0-0.38,0.08-0.74,0.23-1.06c0.15-0.33,0.36-0.61,0.62-0.84
				s0.56-0.42,0.9-0.55s0.69-0.2,1.07-0.2s0.73,0.05,1.07,0.16c0.34,0.11,0.63,0.27,0.89,0.49c0.25,0.22,0.46,0.5,0.61,0.83
				c0.15,0.33,0.23,0.72,0.23,1.18c0,0.12-0.03,0.2-0.08,0.24c-0.05,0.04-0.13,0.07-0.23,0.07h-0.69c-0.11,0-0.19-0.03-0.26-0.08
				s-0.1-0.13-0.1-0.23h0.01c0-0.43-0.12-0.78-0.36-1.03c-0.24-0.25-0.6-0.37-1.07-0.37c-0.26,0-0.49,0.04-0.67,0.12
				c-0.19,0.08-0.34,0.19-0.46,0.33c-0.12,0.14-0.21,0.29-0.26,0.46c-0.06,0.17-0.08,0.34-0.08,0.52c0,0.17,0.03,0.33,0.09,0.49
				c0.06,0.16,0.14,0.3,0.26,0.43s0.25,0.24,0.42,0.33s0.36,0.15,0.57,0.17c0.12,0.01,0.2,0.04,0.25,0.09
				c0.05,0.05,0.07,0.13,0.07,0.23l-0.09,0.55c-0.02,0.1-0.05,0.17-0.09,0.22s-0.11,0.06-0.2,0.06c-0.68,0-1.18,0.18-1.5,0.54
				s-0.48,0.88-0.48,1.56c0,0.29,0.06,0.56,0.18,0.8s0.28,0.45,0.48,0.62c0.2,0.17,0.43,0.3,0.7,0.4c0.27,0.09,0.55,0.14,0.85,0.14
				c0.27,0,0.53-0.04,0.78-0.12c0.25-0.08,0.48-0.2,0.68-0.36c0.2-0.16,0.37-0.37,0.5-0.61c0.13-0.25,0.21-0.54,0.22-0.88
				L133.96,234.98z"/>
			<path d="M157.35,228.29c0-0.22,0.1-0.34,0.31-0.34h4.04c0.47,0,0.9,0.09,1.3,0.26s0.75,0.41,1.05,0.71s0.53,0.65,0.7,1.06
				c0.17,0.4,0.26,0.83,0.26,1.29c0,0.33-0.05,0.64-0.14,0.94s-0.22,0.58-0.38,0.84c-0.16,0.26-0.36,0.49-0.59,0.69
				c-0.23,0.2-0.48,0.37-0.76,0.51l1.85,3.79v0.09c0,0.14-0.09,0.22-0.26,0.22h-0.85c-0.14,0-0.26-0.09-0.34-0.26l-1.68-3.53
				c-0.04,0-0.08,0.01-0.12,0.01c-0.04,0-0.11,0-0.19,0c-0.08,0-0.19,0-0.33,0s-0.31,0-0.54,0s-0.49,0-0.82,0s-0.71,0-1.17,0v3.46
				c0,0.21-0.11,0.31-0.32,0.31h-0.73c-0.21,0-0.31-0.1-0.31-0.31V228.29z M163.67,231.26c0-0.26-0.05-0.5-0.15-0.74
				s-0.24-0.45-0.41-0.63s-0.38-0.33-0.62-0.44c-0.24-0.11-0.5-0.16-0.78-0.16h-2.99v3.95h3.02c0.28,0,0.53-0.05,0.77-0.16
				c0.24-0.11,0.44-0.25,0.62-0.43c0.17-0.18,0.31-0.39,0.41-0.63C163.62,231.77,163.67,231.52,163.67,231.26z"/>
			<path d="M179.59,227.95c0.21,0,0.32,0.11,0.32,0.34v0.69c0,0.09-0.03,0.17-0.08,0.23s-0.14,0.1-0.26,0.1h-5.64v2.88h4.44
				c0.08,0,0.16,0.02,0.22,0.07s0.09,0.13,0.09,0.25v0.71c0,0.08-0.03,0.16-0.08,0.22s-0.13,0.1-0.23,0.1h-4.44v3.44h5.67
				c0.21,0,0.32,0.11,0.32,0.33v0.72c0,0.21-0.1,0.31-0.31,0.31h-6.73c-0.21,0-0.31-0.1-0.31-0.29v-9.78c0-0.21,0.1-0.32,0.31-0.32
				H179.59z"/>
			<path d="M193.13,230.22c-0.07-0.04-0.17-0.12-0.32-0.25s-0.33-0.25-0.55-0.37c-0.22-0.13-0.46-0.24-0.73-0.34
				c-0.27-0.1-0.56-0.15-0.88-0.15c-0.37,0-0.69,0.04-0.95,0.13s-0.49,0.21-0.66,0.35c-0.17,0.15-0.3,0.31-0.38,0.5
				c-0.08,0.18-0.12,0.37-0.12,0.56c0,0.26,0.09,0.48,0.26,0.66c0.17,0.18,0.4,0.33,0.69,0.46s0.61,0.25,0.97,0.35
				c0.36,0.1,0.73,0.22,1.11,0.33c0.38,0.12,0.74,0.25,1.11,0.39c0.36,0.15,0.68,0.33,0.97,0.54c0.28,0.21,0.51,0.47,0.69,0.77
				c0.17,0.3,0.26,0.66,0.26,1.08c0,0.49-0.1,0.93-0.3,1.33c-0.2,0.4-0.48,0.74-0.83,1.02c-0.35,0.28-0.77,0.5-1.24,0.65
				c-0.48,0.15-0.99,0.23-1.53,0.23c-0.36,0-0.72-0.04-1.08-0.12c-0.36-0.08-0.7-0.2-1.03-0.36c-0.33-0.16-0.64-0.35-0.92-0.57
				c-0.28-0.22-0.54-0.48-0.76-0.77c-0.06-0.07-0.09-0.15-0.09-0.22c0-0.08,0.04-0.14,0.12-0.21l0.55-0.46
				c0.08-0.07,0.16-0.09,0.23-0.09c0.08,0.01,0.14,0.05,0.2,0.12l0.09,0.09c0.2,0.22,0.42,0.41,0.67,0.57
				c0.25,0.16,0.5,0.29,0.75,0.4c0.25,0.11,0.49,0.18,0.72,0.23c0.23,0.05,0.42,0.08,0.58,0.08c0.28,0,0.58-0.04,0.88-0.11
				c0.3-0.08,0.57-0.19,0.82-0.34c0.25-0.15,0.45-0.35,0.61-0.58c0.16-0.24,0.24-0.51,0.24-0.83c0-0.27-0.08-0.49-0.23-0.68
				c-0.16-0.18-0.37-0.34-0.63-0.48c-0.27-0.14-0.58-0.26-0.93-0.37c-0.36-0.11-0.74-0.22-1.14-0.35c-0.56-0.16-1.04-0.33-1.44-0.51
				s-0.73-0.38-0.99-0.6c-0.26-0.22-0.45-0.46-0.57-0.73s-0.18-0.57-0.18-0.91c0-0.42,0.08-0.81,0.25-1.17
				c0.17-0.35,0.41-0.66,0.72-0.91c0.31-0.26,0.69-0.46,1.13-0.6c0.44-0.14,0.93-0.21,1.48-0.21c0.29,0,0.6,0.04,0.92,0.11
				c0.32,0.08,0.63,0.18,0.93,0.31s0.58,0.29,0.85,0.48c0.26,0.18,0.49,0.39,0.68,0.61c0.07,0.07,0.1,0.14,0.1,0.22
				s-0.03,0.15-0.11,0.22l-0.5,0.48c-0.07,0.07-0.15,0.1-0.23,0.1C193.27,230.32,193.19,230.28,193.13,230.22z"/>
			<path d="M208.83,227.95c0.08,0,0.16,0.03,0.23,0.08c0.07,0.05,0.11,0.13,0.12,0.23v0.71c0,0.09-0.03,0.17-0.08,0.24
				c-0.06,0.07-0.14,0.1-0.26,0.1h-2.91v8.71c0,0.08-0.03,0.16-0.08,0.22c-0.06,0.07-0.13,0.1-0.24,0.1h-0.71
				c-0.08,0-0.16-0.03-0.22-0.09c-0.06-0.06-0.1-0.14-0.1-0.23v-8.71h-2.92c-0.09,0-0.17-0.03-0.23-0.08
				c-0.06-0.06-0.09-0.14-0.09-0.26v-0.71c0-0.09,0.03-0.17,0.09-0.22s0.14-0.08,0.23-0.08H208.83z"/>
			<path d="M215.82,238.08c-0.03,0.08-0.08,0.14-0.14,0.19c-0.06,0.05-0.14,0.07-0.23,0.07h-0.74c-0.21,0-0.32-0.08-0.32-0.25
				c0-0.03,0-0.06,0-0.08c0-0.02,0.01-0.04,0.01-0.06s0.01-0.04,0.01-0.05l4.04-9.7c0.01-0.02,0.02-0.05,0.04-0.08
				c0.01-0.03,0.03-0.06,0.06-0.08c0.02-0.03,0.06-0.05,0.1-0.07c0.04-0.02,0.1-0.03,0.18-0.03h0.46c0.07,0,0.13,0.01,0.17,0.03
				c0.04,0.02,0.08,0.04,0.1,0.07s0.04,0.05,0.06,0.08s0.03,0.06,0.04,0.08l4,9.7c0,0.02,0.01,0.05,0.01,0.07
				c0,0.02,0.01,0.05,0.01,0.07c0,0.02,0.01,0.04,0.01,0.05c0,0.16-0.11,0.25-0.32,0.25h-0.74c-0.09,0-0.17-0.02-0.23-0.07
				c-0.06-0.05-0.11-0.11-0.14-0.19l-0.77-1.92h-4.91c-0.16,0.42-0.31,0.79-0.45,1.13S215.89,237.89,215.82,238.08z M217.13,234.8
				h3.81l-1.89-4.79L217.13,234.8z"/>
			<path d="M232.1,234.04c0,0.44,0.06,0.86,0.19,1.24c0.13,0.38,0.32,0.72,0.57,1c0.25,0.28,0.55,0.5,0.91,0.66
				c0.36,0.16,0.77,0.24,1.23,0.24c0.49,0,0.93-0.08,1.29-0.25c0.37-0.16,0.67-0.39,0.91-0.67s0.42-0.61,0.54-1s0.18-0.79,0.18-1.23
				v-5.79c0-0.08,0.03-0.16,0.09-0.22c0.06-0.06,0.14-0.09,0.23-0.09h0.67c0.09,0,0.17,0.03,0.25,0.08
				c0.08,0.06,0.11,0.13,0.11,0.22v5.98c0,0.63-0.11,1.21-0.34,1.73c-0.22,0.53-0.53,0.98-0.92,1.35c-0.39,0.38-0.84,0.67-1.36,0.88
				c-0.52,0.21-1.07,0.31-1.66,0.31s-1.14-0.11-1.66-0.34c-0.52-0.22-0.97-0.53-1.36-0.92s-0.7-0.84-0.92-1.36
				c-0.22-0.52-0.34-1.07-0.34-1.66v-5.98c0-0.07,0.03-0.14,0.08-0.21s0.12-0.1,0.21-0.1h0.75c0.07,0,0.14,0.03,0.22,0.09
				c0.08,0.06,0.11,0.13,0.11,0.22V234.04z"/>
			<path d="M247,228.29c0-0.22,0.1-0.34,0.31-0.34h4.04c0.47,0,0.9,0.09,1.3,0.26s0.75,0.41,1.05,0.71s0.53,0.65,0.7,1.06
				c0.17,0.4,0.26,0.83,0.26,1.29c0,0.33-0.05,0.64-0.14,0.94s-0.22,0.58-0.38,0.84c-0.16,0.26-0.36,0.49-0.59,0.69
				c-0.23,0.2-0.48,0.37-0.76,0.51l1.85,3.79v0.09c0,0.14-0.09,0.22-0.26,0.22h-0.85c-0.14,0-0.26-0.09-0.34-0.26l-1.68-3.53
				c-0.04,0-0.08,0.01-0.12,0.01c-0.04,0-0.11,0-0.19,0c-0.08,0-0.19,0-0.33,0s-0.31,0-0.54,0s-0.49,0-0.82,0s-0.71,0-1.17,0v3.46
				c0,0.21-0.11,0.31-0.32,0.31h-0.73c-0.21,0-0.31-0.1-0.31-0.31V228.29z M253.32,231.26c0-0.26-0.05-0.5-0.15-0.74
				s-0.24-0.45-0.41-0.63s-0.38-0.33-0.62-0.44c-0.24-0.11-0.5-0.16-0.78-0.16h-2.99v3.95h3.02c0.28,0,0.53-0.05,0.77-0.16
				c0.24-0.11,0.44-0.25,0.62-0.43c0.17-0.18,0.31-0.39,0.41-0.63C253.27,231.77,253.32,231.52,253.32,231.26z"/>
			<path d="M263.06,238.08c-0.03,0.08-0.08,0.14-0.14,0.19c-0.06,0.05-0.14,0.07-0.23,0.07h-0.74c-0.21,0-0.32-0.08-0.32-0.25
				c0-0.03,0-0.06,0-0.08c0-0.02,0.01-0.04,0.01-0.06s0.01-0.04,0.01-0.05l4.04-9.7c0.01-0.02,0.02-0.05,0.04-0.08
				c0.01-0.03,0.03-0.06,0.06-0.08c0.02-0.03,0.06-0.05,0.1-0.07c0.04-0.02,0.1-0.03,0.18-0.03h0.46c0.07,0,0.13,0.01,0.17,0.03
				c0.04,0.02,0.08,0.04,0.1,0.07s0.04,0.05,0.06,0.08s0.03,0.06,0.04,0.08l4,9.7c0,0.02,0.01,0.05,0.01,0.07
				c0,0.02,0.01,0.05,0.01,0.07c0,0.02,0.01,0.04,0.01,0.05c0,0.16-0.11,0.25-0.32,0.25h-0.74c-0.09,0-0.17-0.02-0.23-0.07
				c-0.06-0.05-0.11-0.11-0.14-0.19l-0.77-1.92h-4.91c-0.16,0.42-0.31,0.79-0.45,1.13S263.13,237.89,263.06,238.08z M264.37,234.8
				h3.81l-1.89-4.79L264.37,234.8z"/>
			<path d="M285.82,238.34c-0.1,0-0.19-0.05-0.27-0.15l-6.11-8.19v8.03c0,0.21-0.11,0.31-0.32,0.31h-0.71
				c-0.21,0-0.31-0.1-0.31-0.31v-9.76c0-0.09,0.03-0.17,0.08-0.23c0.06-0.06,0.13-0.09,0.22-0.09h0.94c0.12,0,0.22,0.05,0.29,0.15
				l5.96,7.92v-7.81c0.03-0.17,0.13-0.26,0.31-0.26h0.71c0.08,0,0.16,0.03,0.23,0.08s0.11,0.13,0.11,0.22v9.78
				c0,0.21-0.11,0.31-0.34,0.31H285.82z"/>
			<path d="M301.55,227.95c0.08,0,0.16,0.03,0.23,0.08c0.07,0.05,0.11,0.13,0.12,0.23v0.71c0,0.09-0.03,0.17-0.08,0.24
				c-0.06,0.07-0.14,0.1-0.26,0.1h-2.91v8.71c0,0.08-0.03,0.16-0.08,0.22c-0.06,0.07-0.13,0.1-0.24,0.1h-0.71
				c-0.08,0-0.16-0.03-0.22-0.09c-0.06-0.06-0.1-0.14-0.1-0.23v-8.71h-2.92c-0.09,0-0.17-0.03-0.23-0.08
				c-0.06-0.06-0.09-0.14-0.09-0.26v-0.71c0-0.09,0.03-0.17,0.09-0.22s0.14-0.08,0.23-0.08H301.55z"/>
		</g>
	</g>
	<g>
		<g>
			<path d="M87.12,210.06c-0.21,0-0.4-0.11-0.55-0.32L73.85,192.7v16.72c0,0.43-0.22,0.64-0.67,0.64h-1.47
				c-0.43,0-0.64-0.21-0.64-0.64v-20.32c0-0.19,0.06-0.35,0.17-0.48s0.27-0.19,0.47-0.19h1.95c0.25,0,0.46,0.11,0.61,0.32
				l12.39,16.47v-16.25c0.06-0.36,0.27-0.54,0.64-0.54h1.47c0.17,0,0.34,0.06,0.49,0.17s0.23,0.27,0.23,0.47v20.35
				c0,0.43-0.24,0.64-0.71,0.64H87.12z"/>
			<path d="M105.79,189.11c0-0.45,0.21-0.67,0.64-0.67h13.75c0.45,0,0.67,0.23,0.67,0.7v1.44c0,0.18-0.06,0.34-0.18,0.48
				c-0.12,0.14-0.28,0.2-0.49,0.2h-11.56v7.15c1.54,0,3.06,0,4.56,0.01s3.02,0.01,4.57,0.01c0.17,0,0.33,0.05,0.45,0.16
				c0.13,0.11,0.19,0.28,0.19,0.52v1.47c0,0.17-0.06,0.33-0.17,0.47s-0.27,0.2-0.47,0.2h-9.13v8.2c0,0.41-0.23,0.61-0.68,0.61h-1.5
				c-0.43,0-0.64-0.2-0.64-0.61V189.11z"/>
			<path d="M149.76,188.44c0.17,0,0.33,0.05,0.47,0.16c0.14,0.11,0.22,0.27,0.24,0.48v1.47c0,0.19-0.06,0.36-0.17,0.5
				s-0.3,0.21-0.54,0.21h-6.06v18.13c0,0.17-0.06,0.33-0.17,0.47c-0.12,0.14-0.28,0.2-0.5,0.2h-1.47c-0.17,0-0.33-0.06-0.47-0.19
				c-0.14-0.13-0.2-0.29-0.2-0.48v-18.13h-6.09c-0.19,0-0.35-0.06-0.48-0.17c-0.13-0.12-0.19-0.3-0.19-0.54v-1.47
				c0-0.19,0.06-0.35,0.19-0.47s0.29-0.17,0.48-0.17H149.76z"/>
			<path d="M198.61,193.16c-0.14-0.09-0.36-0.26-0.67-0.51c-0.31-0.25-0.69-0.51-1.14-0.77c-0.45-0.26-0.96-0.5-1.52-0.71
				c-0.56-0.21-1.17-0.31-1.82-0.31c-0.77,0-1.43,0.09-1.98,0.28c-0.55,0.18-1.01,0.43-1.37,0.74c-0.36,0.31-0.62,0.65-0.79,1.03
				s-0.25,0.77-0.25,1.16c0,0.54,0.18,1,0.54,1.37c0.36,0.37,0.83,0.69,1.43,0.96c0.59,0.27,1.26,0.52,2.02,0.74
				c0.75,0.22,1.52,0.45,2.3,0.69c0.78,0.24,1.55,0.51,2.3,0.82c0.75,0.3,1.42,0.67,2.02,1.12c0.59,0.45,1.07,0.98,1.43,1.6
				s0.54,1.37,0.54,2.26c0,1.02-0.21,1.94-0.63,2.77c-0.42,0.83-1,1.54-1.73,2.13c-0.73,0.59-1.59,1.04-2.59,1.36
				c-0.99,0.32-2.05,0.48-3.19,0.48c-0.76,0-1.51-0.08-2.25-0.25c-0.74-0.17-1.46-0.42-2.14-0.74s-1.32-0.72-1.92-1.19
				c-0.59-0.47-1.12-1-1.59-1.6c-0.13-0.16-0.19-0.31-0.18-0.47s0.09-0.3,0.25-0.44l1.15-0.96c0.17-0.14,0.33-0.2,0.48-0.18
				c0.16,0.01,0.3,0.1,0.42,0.25l0.19,0.19c0.41,0.46,0.87,0.85,1.39,1.19s1.04,0.61,1.56,0.83c0.52,0.22,1.02,0.38,1.49,0.49
				c0.48,0.11,0.88,0.16,1.21,0.16c0.59,0,1.2-0.08,1.82-0.23s1.19-0.39,1.7-0.71s0.94-0.73,1.27-1.22s0.5-1.07,0.5-1.73
				c0-0.55-0.16-1.02-0.49-1.41c-0.33-0.38-0.76-0.72-1.32-1c-0.55-0.29-1.2-0.54-1.94-0.77c-0.74-0.23-1.54-0.47-2.38-0.72
				c-1.17-0.34-2.17-0.7-3-1.07s-1.52-0.79-2.06-1.24c-0.54-0.45-0.93-0.96-1.19-1.51c-0.25-0.56-0.38-1.19-0.38-1.89
				c0-0.88,0.18-1.69,0.53-2.42s0.86-1.37,1.51-1.9s1.43-0.95,2.35-1.25c0.92-0.3,1.94-0.44,3.08-0.44c0.61,0,1.25,0.08,1.91,0.23
				c0.66,0.16,1.3,0.37,1.93,0.65c0.63,0.28,1.21,0.61,1.76,0.99c0.55,0.38,1.02,0.81,1.42,1.27c0.14,0.15,0.21,0.3,0.21,0.46
				s-0.07,0.31-0.23,0.46l-1.03,0.99c-0.16,0.15-0.31,0.21-0.47,0.2S198.74,193.29,198.61,193.16z"/>
			<path d="M220.04,209.42c0,0.43-0.22,0.64-0.67,0.64h-1.5c-0.43,0-0.64-0.21-0.64-0.64v-20.35c0-0.17,0.05-0.33,0.16-0.45
				c0.11-0.13,0.27-0.19,0.48-0.19h1.5c0.17,0,0.33,0.06,0.47,0.17s0.2,0.27,0.2,0.47v10.38l10.06-10.57
				c0.22-0.3,0.45-0.45,0.67-0.45h2.88c0.23,0,0.35,0.05,0.35,0.16c0,0.09-0.05,0.18-0.16,0.29v-0.03c-1.37,1.5-2.75,2.97-4.13,4.43
				s-2.78,2.93-4.2,4.41l9.98,11.78c0.08,0.12,0.13,0.21,0.17,0.28c0.03,0.07,0.05,0.12,0.05,0.14c0,0.11-0.11,0.16-0.32,0.16h-2.88
				c-0.23,0-0.45-0.15-0.64-0.45l-8.27-9.9l-3.55,3.79V209.42z"/>
			<path d="M248.38,189.14c-0.14-0.2-0.19-0.37-0.17-0.5c0.02-0.13,0.15-0.2,0.37-0.2h2.36c0.09,0.01,0.16,0.02,0.22,0.03
				c0.06,0.01,0.11,0.03,0.16,0.07c0.05,0.03,0.1,0.09,0.15,0.17c0.05,0.08,0.11,0.18,0.19,0.32l5.21,9.04h0.04l5.32-9.15
				c0.11-0.19,0.2-0.32,0.29-0.37c0.09-0.05,0.2-0.09,0.35-0.11h2.43c0.21,0,0.32,0.09,0.32,0.26c0,0.09-0.05,0.21-0.16,0.38
				c-0.6,0.96-1.2,1.94-1.79,2.93c-0.59,1-1.18,2-1.77,3c-0.59,1-1.18,2-1.78,3c-0.6,1-1.2,1.97-1.81,2.93v8.42
				c0,0.47-0.21,0.7-0.64,0.7h-1.56c-0.41,0-0.61-0.23-0.61-0.7v-8.34L248.38,189.14z"/>
			<path d="M295.31,194.31c0,0.83-0.16,1.62-0.49,2.36c-0.33,0.74-0.78,1.37-1.36,1.89c0.45,0.26,0.85,0.58,1.22,0.95
				s0.68,0.77,0.94,1.22c0.26,0.44,0.46,0.92,0.6,1.42c0.14,0.5,0.21,1.03,0.21,1.57c0,0.84-0.16,1.65-0.47,2.42
				c-0.31,0.77-0.74,1.44-1.28,2.02c-0.54,0.58-1.19,1.05-1.93,1.39c-0.74,0.34-1.55,0.52-2.41,0.52h-9.51
				c-0.19,0-0.35-0.05-0.48-0.16c-0.13-0.11-0.19-0.27-0.19-0.48v-20.29c0-0.47,0.22-0.7,0.67-0.7h8.55c0.84,0,1.63,0.15,2.34,0.45
				c0.72,0.3,1.34,0.71,1.88,1.24c0.53,0.52,0.95,1.14,1.25,1.86C295.16,192.7,295.31,193.47,295.31,194.31z M292.45,194.31
				c0-0.45-0.08-0.86-0.23-1.24c-0.15-0.38-0.36-0.71-0.64-0.98c-0.28-0.28-0.6-0.49-0.98-0.64c-0.38-0.15-0.8-0.23-1.25-0.23h-6.41
				v6.32h6.38c0.45,0,0.86-0.08,1.25-0.25s0.71-0.39,0.99-0.68c0.28-0.29,0.5-0.63,0.66-1.03S292.45,194.76,292.45,194.31z
				 M282.94,200.32v6.96h7.37c0.45,0,0.87-0.1,1.27-0.29c0.4-0.19,0.75-0.45,1.04-0.78c0.3-0.32,0.53-0.7,0.7-1.14
				c0.17-0.43,0.25-0.89,0.25-1.36c0-0.46-0.08-0.89-0.25-1.3c-0.17-0.41-0.4-0.77-0.69-1.08c-0.29-0.31-0.64-0.56-1.03-0.74
				c-0.4-0.18-0.83-0.28-1.28-0.28H282.94z"/>
			<path d="M313.31,209.52c-0.07,0.17-0.17,0.3-0.29,0.39s-0.29,0.15-0.48,0.15h-1.54c-0.45,0-0.67-0.17-0.67-0.51
				c0-0.07,0-0.12,0.01-0.17c0-0.04,0.01-0.08,0.02-0.12s0.02-0.07,0.03-0.1l8.4-20.18c0.02-0.05,0.04-0.1,0.07-0.17
				c0.03-0.06,0.07-0.12,0.12-0.17c0.05-0.05,0.12-0.1,0.21-0.14c0.09-0.04,0.22-0.06,0.37-0.06h0.96c0.15,0,0.26,0.02,0.36,0.06
				c0.09,0.04,0.16,0.08,0.21,0.14c0.05,0.05,0.09,0.11,0.12,0.17c0.03,0.06,0.05,0.12,0.07,0.17l8.33,20.18
				c0.01,0.05,0.02,0.1,0.03,0.15c0.01,0.05,0.02,0.09,0.03,0.14s0.01,0.08,0.01,0.11c0,0.34-0.22,0.51-0.67,0.51h-1.54
				c-0.19,0-0.35-0.05-0.48-0.15s-0.22-0.23-0.29-0.39l-1.6-4h-10.22c-0.34,0.86-0.65,1.65-0.93,2.34
				C313.65,208.56,313.44,209.12,313.31,209.52z M316.03,202.69h7.94l-3.93-9.96L316.03,202.69z"/>
			<path d="M344.63,189.14c0-0.47,0.21-0.7,0.64-0.7h8.4c0.97,0,1.87,0.18,2.71,0.55s1.56,0.86,2.18,1.49
				c0.62,0.63,1.11,1.36,1.46,2.2c0.35,0.84,0.53,1.74,0.53,2.69c0,0.68-0.09,1.33-0.28,1.96c-0.19,0.63-0.45,1.21-0.79,1.74
				s-0.75,1.01-1.22,1.43c-0.48,0.42-1,0.77-1.59,1.06l3.84,7.88v0.19c0,0.3-0.18,0.45-0.54,0.45h-1.76c-0.3,0-0.53-0.18-0.7-0.54
				l-3.5-7.34c-0.08,0.01-0.16,0.01-0.25,0.01c-0.09,0-0.22,0-0.39,0.01c-0.17,0.01-0.4,0.01-0.68,0.01c-0.28,0-0.65,0-1.11,0
				s-1.03,0-1.7,0s-1.48,0-2.43,0v7.21c0,0.43-0.22,0.64-0.67,0.64h-1.51c-0.43,0-0.64-0.21-0.64-0.64V189.14z M357.77,195.33
				c0-0.53-0.1-1.05-0.31-1.54s-0.5-0.93-0.86-1.31s-0.8-0.68-1.3-0.91s-1.04-0.34-1.62-0.34h-6.22v8.21h6.28
				c0.57,0,1.11-0.11,1.6-0.33c0.5-0.22,0.92-0.52,1.28-0.9s0.64-0.82,0.84-1.31C357.67,196.39,357.77,195.87,357.77,195.33z"/>
		</g>
	</g>
</g>
</svg>
